<?xml version="1.0" encoding="UTF-8" standalone="no"?>
<svg
   xmlns:dc="http://purl.org/dc/elements/1.1/"
   xmlns:cc="http://creativecommons.org/ns#"
   xmlns:rdf="http://www.w3.org/1999/02/22-rdf-syntax-ns#"
   xmlns:svg="http://www.w3.org/2000/svg"
   xmlns="http://www.w3.org/2000/svg"
   xmlns:sodipodi="http://sodipodi.sourceforge.net/DTD/sodipodi-0.dtd"
   xmlns:inkscape="http://www.inkscape.org/namespaces/inkscape"
   width="2302"
   height="1533"
   overflow="hidden"
   version="1.1"
   id="svg597"
   sodipodi:docname="gpml2021_schema_diagram.svg"
   inkscape:version="1.0.1 (3bc2e813f5, 2020-09-07)">
  <metadata
     id="metadata601">
    <rdf:RDF>
      <cc:Work
         rdf:about="">
        <dc:format>image/svg+xml</dc:format>
        <dc:type
           rdf:resource="http://purl.org/dc/dcmitype/StillImage" />
        <dc:title></dc:title>
      </cc:Work>
    </rdf:RDF>
  </metadata>
  <sodipodi:namedview
     pagecolor="#ffffff"
     bordercolor="#666666"
     borderopacity="1"
     objecttolerance="10"
     gridtolerance="10"
     guidetolerance="10"
     inkscape:pageopacity="0"
     inkscape:pageshadow="2"
     inkscape:window-width="1920"
     inkscape:window-height="1001"
     id="namedview599"
     showgrid="false"
     fit-margin-top="0"
     fit-margin-left="0"
     fit-margin-right="0"
     fit-margin-bottom="0"
     inkscape:zoom="0.31375"
     inkscape:cx="1200"
     inkscape:cy="944.01987"
     inkscape:window-x="-9"
     inkscape:window-y="-9"
     inkscape:window-maximized="1"
     inkscape:current-layer="g595" />
  <defs
     id="defs5">
    <clipPath
       id="clip0">
      <rect
         x="0"
         y="0"
         width="2400"
         height="2400"
         id="rect2" />
    </clipPath>
  </defs>
  <g
     clip-path="url(#clip0)"
     id="g595"
     transform="translate(0,-1.0000501)">
    <path
       d="M 0,0 101.732,0.818898"
       stroke="#595959"
       stroke-width="3"
       stroke-linejoin="round"
       stroke-miterlimit="10"
       stroke-dasharray="12, 9"
       fill="none"
       fill-rule="evenodd"
       transform="matrix(1,0,0,-1,894.5,930.319)"
       id="path9" />
    <path
       d="M 0,0 107.874,282.11"
       stroke="#595959"
       stroke-width="3"
       stroke-linejoin="round"
       stroke-miterlimit="10"
       stroke-dasharray="12, 9"
       fill="none"
       fill-rule="evenodd"
       transform="matrix(1,0,0,-1,2027.5,1183.61)"
       id="path11" />
    <path
       d="m 720.5,741.5 369.54,120.378"
       stroke="#595959"
       stroke-width="3"
       stroke-linejoin="round"
       stroke-miterlimit="10"
       stroke-dasharray="12, 9"
       fill="none"
       fill-rule="evenodd"
       id="path13" />
    <rect
       x="0.50005299"
       y="2.5000501"
       width="1090"
       height="155"
       stroke="#666666"
       stroke-width="3"
       stroke-linejoin="round"
       stroke-miterlimit="10"
       stroke-dasharray="3, 9"
       fill="none"
       id="rect15" />
    <text
       fill="#999999"
       font-family="Arial, Arial_MSFontService, sans-serif"
       font-style="italic"
       font-weight="700"
       font-size="29px"
       transform="translate(975.432,40)"
       id="text17">Legend</text>
    <path
       d="M 0,0 406.079,118.142"
       stroke="#595959"
       stroke-width="3"
       stroke-linejoin="round"
       stroke-miterlimit="10"
       stroke-dasharray="12, 9"
       fill="none"
       fill-rule="evenodd"
       transform="matrix(1,0,0,-1,684.5,1115.64)"
       id="path19" />
    <path
       d="M 2027.38,1183.77 1090.5,997.5"
       stroke="#595959"
       stroke-width="3"
       stroke-linejoin="round"
       stroke-miterlimit="10"
       stroke-dasharray="12, 9"
       fill="none"
       fill-rule="evenodd"
       id="path21" />
    <path
       d="M 0,0 401.512,89.4173"
       stroke="#595959"
       stroke-width="3"
       stroke-linejoin="round"
       stroke-miterlimit="10"
       stroke-dasharray="12, 9"
       fill="none"
       fill-rule="evenodd"
       transform="matrix(-1,0,0,1,1585.01,840.5)"
       id="path23" />
    <path
       d="M 0,0 367.496,268.346"
       stroke="#595959"
       stroke-width="3"
       stroke-linejoin="round"
       stroke-miterlimit="10"
       stroke-dasharray="12, 9"
       fill="none"
       fill-rule="evenodd"
       transform="matrix(-1,0,0,1,1458,593.5)"
       id="path25" />
    <path
       d="m 992.5,692.5 98.11,169.575"
       stroke="#595959"
       stroke-width="3"
       stroke-linejoin="round"
       stroke-miterlimit="10"
       stroke-dasharray="12, 9"
       fill="none"
       fill-rule="evenodd"
       id="path27" />
    <path
       d="m 996.5,885.001 c 0,-12.427 10.07,-22.501 22.5,-22.501 h 142 c 12.43,0 22.5,10.074 22.5,22.501 V 975 c 0,12.426 -10.07,22.5 -22.5,22.5 h -142 c -12.43,0 -22.5,-10.074 -22.5,-22.5 z"
       stroke="#000000"
       stroke-width="3"
       stroke-linejoin="round"
       stroke-miterlimit="10"
       fill="#f5f6f6"
       fill-rule="evenodd"
       id="path29" />
    <text
       font-family="Arial, Arial_MSFontService, sans-serif"
       font-weight="400"
       font-size="36px"
       transform="translate(1020.65,943)"
       id="text31">Pathway</text>
    <path
       d="m 1242.5,174.168 c 0,-39.581 32.09,-71.668 71.67,-71.668 h 286.66 c 39.58,0 71.67,32.087 71.67,71.668 v 347.664 c 0,39.581 -32.09,71.668 -71.67,71.668 h -286.66 c -39.58,0 -71.67,-32.087 -71.67,-71.668 z"
       stroke="#000000"
       stroke-width="3"
       stroke-linejoin="round"
       stroke-miterlimit="10"
       fill="#f5f6f6"
       fill-rule="evenodd"
       id="path33" />
    <path
       d="m 1320.85,285.95 h 109.66 v 30 h -109.66 z"
       fill="#c8d0f8"
       fill-rule="evenodd"
       id="path35" />
    <path
       d="m 1320.85,317.95 h 96.5 v 30 h -96.5 z"
       fill="#c8d0f8"
       fill-rule="evenodd"
       id="path37" />
    <path
       d="m 1320.85,349.95 h 48.83 v 30 h -48.83 z"
       fill="#d9d9d9"
       fill-rule="evenodd"
       id="path39" />
    <text
       font-family="Arial, Arial_MSFontService, sans-serif"
       font-weight="400"
       font-size="27px"
       transform="translate(1390.35,150)"
       id="text67">DataNodes<tspan
   font-size="27px"
   x="-117.5"
   y="32"
   id="tspan41">DataNode</tspan><tspan
   fill="#3955e7"
   font-size="27px"
   x="-69.5"
   y="64"
   id="tspan43">elementId</tspan><tspan
   fill="#3955e7"
   font-size="27px"
   x="-69.5"
   y="96"
   id="tspan45">textLabel</tspan><tspan
   fill="#3955e7"
   font-size="27px"
   x="-69.5"
   y="128"
   id="tspan47">type</tspan><tspan
   fill="#3955e7"
   font-style="italic"
   font-size="27px"
   x="-69.5"
   y="160"
   id="tspan49">groupRef</tspan><tspan
   fill="#3955e7"
   font-style="italic"
   font-size="27px"
   x="-69.5"
   y="192"
   id="tspan51">aliasRef</tspan><tspan
   font-style="italic"
   font-size="27px"
   x="-69.5"
   y="224"
   id="tspan53">Xref</tspan><tspan
   font-size="27px"
   x="-69.5"
   y="256"
   id="tspan55">States</tspan><tspan
   font-size="27px"
   x="-69.5"
   y="288"
   id="tspan57">Graphics</tspan><tspan
   fill="#3955e7"
   font-weight="700"
   font-size="27px"
   x="-21.5"
   y="320"
   id="tspan59">RectAttributes</tspan><tspan
   fill="#3955e7"
   font-weight="700"
   font-size="27px"
   x="-21.5"
   y="352"
   id="tspan61">FontAttributes</tspan><tspan
   fill="#3955e7"
   font-weight="700"
   font-size="27px"
   x="-21.5"
   y="384"
   id="tspan63">ShapeStyleAttributes</tspan><tspan
   fill="#d16919"
   font-size="27px"
   x="-69.5"
   y="416"
   id="tspan65">CommentGroup</tspan></text>
    <rect
       x="280.5"
       y="27.500099"
       width="126"
       height="116"
       stroke="#ff8120"
       stroke-width="3"
       stroke-linejoin="round"
       stroke-miterlimit="10"
       fill="#ffe0c8"
       id="rect69" />
    <text
       fill="#d16919"
       font-family="Arial, Arial_MSFontService, sans-serif"
       font-weight="400"
       font-size="27px"
       transform="translate(309.048,95)"
       id="text71">group</text>
    <rect
       x="27.500099"
       y="386.5"
       width="318"
       height="326"
       stroke="#3955e7"
       stroke-width="3"
       stroke-linejoin="round"
       stroke-miterlimit="10"
       fill="#edf0fd"
       id="rect73" />
    <text
       fill="#3955e7"
       font-family="Arial, Arial_MSFontService, sans-serif"
       font-weight="700"
       font-size="27px"
       transform="translate(93.9108,415)"
       id="text93">FontAttributes<tspan
   font-weight="400"
   font-size="27px"
   x="-57.333302"
   y="32"
   id="tspan75">textColor</tspan><tspan
   font-weight="400"
   font-size="27px"
   x="-57.333302"
   y="64"
   id="tspan77">fontName</tspan><tspan
   font-weight="400"
   font-size="27px"
   x="-57.333302"
   y="96"
   id="tspan79">fontWeight</tspan><tspan
   font-weight="400"
   font-size="27px"
   x="-57.333302"
   y="128"
   id="tspan81">fontStyle</tspan><tspan
   font-weight="400"
   font-size="27px"
   x="-57.333302"
   y="160"
   id="tspan83">fontDecoration</tspan><tspan
   font-weight="400"
   font-size="27px"
   x="-57.333302"
   y="192"
   id="tspan85">fontStrikeThru</tspan><tspan
   font-weight="400"
   font-size="27px"
   x="-57.333302"
   y="224"
   id="tspan87">fontSize</tspan><tspan
   font-weight="400"
   font-size="27px"
   x="-57.333302"
   y="256"
   id="tspan89">hAlign</tspan><tspan
   font-weight="400"
   font-size="27px"
   x="-57.333302"
   y="288"
   id="tspan91">vAlign</tspan></text>
    <path
       d="m 27.5001,45.6672 c 0,-10.5857 8.5813,-19.1671 19.167,-19.1671 H 251.333 c 10.586,0 19.167,8.5814 19.167,19.1671 v 76.6658 c 0,10.586 -8.581,19.167 -19.167,19.167 H 46.6671 c -10.5857,0 -19.167,-8.581 -19.167,-19.167 z"
       stroke="#000000"
       stroke-width="3"
       stroke-linejoin="round"
       stroke-miterlimit="10"
       fill="#f5f6f6"
       fill-rule="evenodd"
       id="path95" />
    <path
       d="M 50.5157,85.6483 H 246.182 V 115.648 H 50.5157 Z"
       fill="#cccccc"
       fill-rule="evenodd"
       id="path97" />
    <text
       font-family="Arial, Arial_MSFontService, sans-serif"
       font-weight="400"
       font-size="27px"
       transform="translate(100.936,78)"
       id="text101">element<tspan
   font-style="italic"
   font-size="27px"
   x="-50.419998"
   y="32"
   id="tspan99">optional element</tspan></text>
    <rect
       x="421.5"
       y="27.500099"
       width="278"
       height="116"
       stroke="#3955e7"
       stroke-width="3"
       stroke-linejoin="round"
       stroke-miterlimit="10"
       fill="#edf0fd"
       id="rect103" />
    <path
       d="m 461.65,102.987 h 197 v 30 h -197 z"
       fill="#c8d0f8"
       fill-rule="evenodd"
       id="path105" />
    <text
       fill="#3955e7"
       font-family="Arial, Arial_MSFontService, sans-serif"
       font-weight="700"
       font-size="27px"
       transform="translate(466.903,63)"
       id="text111">attributeGroup<tspan
   font-weight="400"
   font-size="27px"
   x="45.166599"
   y="32"
   id="tspan107">attribute</tspan><tspan
   font-style="italic"
   font-weight="400"
   font-size="27px"
   x="-5.2533598"
   y="64"
   id="tspan109">optional attribute</tspan></text>
    <rect
       x="714.5"
       y="29.500099"
       width="235"
       height="112"
       stroke="#880bc8"
       stroke-width="3"
       stroke-linejoin="round"
       stroke-miterlimit="10"
       fill="#f2dbfd"
       id="rect113" />
    <text
       fill="#880bc8"
       font-family="Arial, Arial_MSFontService, sans-serif"
       font-weight="400"
       font-size="27px"
       transform="translate(763.69,95)"
       id="text115">simpleType</text>
    <rect
       x="27.500099"
       y="1390.5"
       width="205"
       height="97"
       stroke="#880bc8"
       stroke-width="3"
       stroke-linejoin="round"
       stroke-miterlimit="10"
       fill="#f2dbfd"
       id="rect117" />
    <text
       fill="#880bc8"
       font-family="Arial, Arial_MSFontService, sans-serif"
       font-weight="400"
       font-size="27px"
       transform="translate(66.4928,1449)"
       id="text119">Dimension</text>
    <path
       d="m 1740.5,174.668 c 0,-39.857 32.31,-72.168 72.17,-72.168 h 288.66 c 39.86,0 72.17,32.311 72.17,72.168 v 346.664 c 0,39.857 -32.31,72.168 -72.17,72.168 h -288.66 c -39.86,0 -72.17,-32.311 -72.17,-72.168 z"
       stroke="#000000"
       stroke-width="3"
       stroke-linejoin="round"
       stroke-miterlimit="10"
       fill="#f5f6f6"
       fill-rule="evenodd"
       id="path121" />
    <path
       d="m 1818.89,285.635 h 48.84 v 30 h -48.84 z"
       fill="#d9d9d9"
       fill-rule="evenodd"
       id="path123" />
    <text
       font-family="Arial, Arial_MSFontService, sans-serif"
       font-weight="400"
       font-size="27px"
       transform="translate(1918.89,150)"
       id="text151">States<tspan
   font-size="27px"
   x="-148"
   y="32"
   id="tspan125">State</tspan><tspan
   fill="#3955e7"
   font-size="27px"
   x="-100"
   y="64"
   id="tspan127">elementId</tspan><tspan
   fill="#3955e7"
   font-size="27px"
   x="-100"
   y="96"
   id="tspan129">textLabel</tspan><tspan
   fill="#3955e7"
   font-size="27px"
   x="-100"
   y="128"
   id="tspan131">type</tspan><tspan
   font-style="italic"
   font-size="27px"
   x="-100"
   y="160"
   id="tspan133">Xref</tspan><tspan
   font-size="27px"
   x="-100"
   y="192"
   id="tspan135">Graphics</tspan><tspan
   fill="#3955e7"
   font-size="27px"
   x="-52"
   y="224"
   id="tspan137">relX</tspan><tspan
   fill="#3955e7"
   font-size="27px"
   x="-52"
   y="256"
   id="tspan139">relY</tspan><tspan
   fill="#3955e7"
   font-size="27px"
   x="-52"
   y="288"
   id="tspan141">width</tspan><tspan
   fill="#3955e7"
   font-size="27px"
   x="-52"
   y="320"
   id="tspan143">height</tspan><tspan
   fill="#3955e7"
   font-weight="700"
   font-size="27px"
   x="-52"
   y="352"
   id="tspan145">FontAttributes</tspan><tspan
   fill="#3955e7"
   font-weight="700"
   font-size="27px"
   x="-52"
   y="384"
   id="tspan147">ShapeStyleAttributes</tspan><tspan
   fill="#d16919"
   font-size="27px"
   x="-100"
   y="416"
   id="tspan149">CommentGroup</tspan></text>
    <path
       d="m 1825.5,1241.67 c 0,-32.13 26.04,-58.17 58.17,-58.17 h 286.66 c 32.13,0 58.17,26.04 58.17,58.17 v 232.66 c 0,32.13 -26.04,58.17 -58.17,58.17 h -286.66 c -32.13,0 -58.17,-26.04 -58.17,-58.17 z"
       stroke="#000000"
       stroke-width="3"
       stroke-linejoin="round"
       stroke-miterlimit="10"
       fill="#f5f6f6"
       fill-rule="evenodd"
       id="path153" />
    <path
       d="m 1899.63,1295.74 h 109.66 v 30 h -109.66 z"
       fill="#c8d0f8"
       fill-rule="evenodd"
       id="path155" />
    <text
       font-family="Arial, Arial_MSFontService, sans-serif"
       font-weight="400"
       font-size="27px"
       transform="translate(1937.46,1224)"
       id="text175">GraphicalLines<tspan
   font-size="27px"
   x="-85.833397"
   y="32"
   id="tspan157">GraphicalLine</tspan><tspan
   fill="#3955e7"
   font-size="27px"
   x="-37.833401"
   y="64"
   id="tspan159">elementId</tspan><tspan
   fill="#3955e7"
   font-style="italic"
   font-size="27px"
   x="-37.833401"
   y="96"
   id="tspan161">groupRef</tspan><tspan
   font-size="27px"
   x="-37.833401"
   y="128"
   id="tspan163">Waypoints</tspan><tspan
   font-size="27px"
   x="10.1666"
   y="160"
   id="tspan165">Point</tspan><tspan
   font-size="27px"
   x="10.1666"
   y="192"
   id="tspan167">Anchor</tspan><tspan
   font-size="27px"
   x="-37.833401"
   y="224"
   id="tspan169">Graphics</tspan><tspan
   fill="#3955e7"
   font-weight="700"
   font-size="27px"
   x="10.1666"
   y="256"
   id="tspan171">LineStyleAttributes</tspan><tspan
   fill="#d16919"
   font-size="27px"
   x="-37.833401"
   y="288"
   id="tspan173">CommentGroup</tspan></text>
    <path
       d="m 1585.5,708.501 c 0,-36.451 29.55,-66.001 66,-66.001 h 271 c 36.45,0 66,29.55 66,66.001 v 263.998 c 0,36.451 -29.55,66.001 -66,66.001 h -271 c -36.45,0 -66,-29.55 -66,-66.001 z"
       stroke="#000000"
       stroke-width="3"
       stroke-linejoin="round"
       stroke-miterlimit="10"
       fill="#f5f6f6"
       fill-rule="evenodd"
       id="path177" />
    <path
       d="m 1661.8,755.259 h 109.67 v 30 H 1661.8 Z"
       fill="#c8d0f8"
       fill-rule="evenodd"
       id="path179" />
    <path
       d="m 1661.8,787.259 h 48.83 v 30 h -48.83 z"
       fill="#d9d9d9"
       fill-rule="evenodd"
       id="path181" />
    <text
       font-family="Arial, Arial_MSFontService, sans-serif"
       font-weight="400"
       font-size="27px"
       transform="translate(1717.55,683)"
       id="text203">Interactions<tspan
   font-size="27px"
   x="-103.747"
   y="32"
   id="tspan183">Interaction</tspan><tspan
   fill="#3955e7"
   font-size="27px"
   x="-55.7467"
   y="64"
   id="tspan185">elementId</tspan><tspan
   fill="#3955e7"
   font-style="italic"
   font-size="27px"
   x="-55.7467"
   y="96"
   id="tspan187">groupRef</tspan><tspan
   font-style="italic"
   font-size="27px"
   x="-55.7467"
   y="128"
   id="tspan189">Xref</tspan><tspan
   font-size="27px"
   x="-55.7467"
   y="160"
   id="tspan191">Waypoints</tspan><tspan
   font-size="27px"
   x="-7.7466998"
   y="192"
   id="tspan193">Point</tspan><tspan
   font-size="27px"
   x="-7.7466998"
   y="224"
   id="tspan195">Anchor</tspan><tspan
   font-size="27px"
   x="-55.7467"
   y="256"
   id="tspan197">Graphics</tspan><tspan
   fill="#3955e7"
   font-weight="700"
   font-size="27px"
   x="-7.7466998"
   y="288"
   id="tspan199">LineStyleAttributes</tspan><tspan
   fill="#d16919"
   font-size="27px"
   x="-55.7467"
   y="320"
   id="tspan201">CommentGroup</tspan></text>
    <path
       d="m 1369.5,1202.5 c 0,-36.45 29.55,-66 66,-66 h 292 c 36.45,0 66,29.55 66,66 v 264 c 0,36.45 -29.55,66 -66,66 h -292 c -36.45,0 -66,-29.55 -66,-66 z"
       stroke="#000000"
       stroke-width="3"
       stroke-linejoin="round"
       stroke-miterlimit="10"
       fill="#f5f6f6"
       fill-rule="evenodd"
       id="path205" />
    <path
       d="m 1446.26,1288.01 h 109.67 v 30 h -109.67 z"
       fill="#c8d0f8"
       fill-rule="evenodd"
       id="path207" />
    <path
       d="m 1446.26,1320.01 h 45.83 v 30 h -45.83 z"
       fill="#c8d0f8"
       fill-rule="evenodd"
       id="path209" />
    <text
       font-family="Arial, Arial_MSFontService, sans-serif"
       font-weight="400"
       font-size="27px"
       transform="translate(1541.76,1184)"
       id="text231">Labels<tspan
   font-size="27px"
   x="-143.5"
   y="32"
   id="tspan211">Label</tspan><tspan
   fill="#3955e7"
   font-size="27px"
   x="-95.5"
   y="64"
   id="tspan213">elementId</tspan><tspan
   fill="#3955e7"
   font-size="27px"
   x="-95.5"
   y="96"
   id="tspan215">textLabel</tspan><tspan
   fill="#3955e7"
   font-style="italic"
   font-size="27px"
   x="-95.5"
   y="128"
   id="tspan217">groupRef</tspan><tspan
   fill="#3955e7"
   font-style="italic"
   font-size="27px"
   x="-95.5"
   y="160"
   id="tspan219">href</tspan><tspan
   font-size="27px"
   x="-95.5"
   y="192"
   id="tspan221">Graphics</tspan><tspan
   fill="#3955e7"
   font-weight="700"
   font-size="27px"
   x="-47.5"
   y="224"
   id="tspan223">RectAttributes</tspan><tspan
   fill="#3955e7"
   font-weight="700"
   font-size="27px"
   x="-47.5"
   y="256"
   id="tspan225">FontAttributes</tspan><tspan
   fill="#3955e7"
   font-weight="700"
   font-size="27px"
   x="-47.5"
   y="288"
   id="tspan227">ShapeStyleAttributes</tspan><tspan
   fill="#d16919"
   font-size="27px"
   x="-95.5"
   y="320"
   id="tspan229">CommentGroup</tspan></text>
    <path
       d="m 911.5,1202.5 c 0,-36.45 29.55,-66 66.002,-66 H 1269.5 c 36.45,0 66,29.55 66,66 v 264 c 0,36.45 -29.55,66 -66,66 H 977.502 c -36.452,0 -66.002,-29.55 -66.002,-66 z"
       stroke="#000000"
       stroke-width="3"
       stroke-linejoin="round"
       stroke-miterlimit="10"
       fill="#f5f6f6"
       fill-rule="evenodd"
       id="path233" />
    <path
       d="m 988.019,1281.35 h 108.171 v 30 H 988.019 Z"
       fill="#c8d0f8"
       fill-rule="evenodd"
       id="path235" />
    <path
       d="m 988.019,1313.35 h 109.671 v 30 H 988.019 Z"
       fill="#c8d0f8"
       fill-rule="evenodd"
       id="path237" />
    <text
       font-family="Arial, Arial_MSFontService, sans-serif"
       font-weight="400"
       font-size="27px"
       transform="translate(1077.6,1209)"
       id="text257">Shapes<tspan
   font-size="27px"
   x="-137.58"
   y="32"
   id="tspan239">Shape</tspan><tspan
   fill="#3955e7"
   font-size="27px"
   x="-89.580002"
   y="64"
   id="tspan241">elementId</tspan><tspan
   fill="#3955e7"
   font-style="italic"
   font-size="27px"
   x="-89.580002"
   y="96"
   id="tspan243">textLabel</tspan><tspan
   fill="#3955e7"
   font-style="italic"
   font-size="27px"
   x="-89.580002"
   y="128"
   id="tspan245">groupRef</tspan><tspan
   font-size="27px"
   x="-89.580002"
   y="160"
   id="tspan247">Graphics</tspan><tspan
   fill="#3955e7"
   font-weight="700"
   font-size="27px"
   x="-41.580002"
   y="192"
   id="tspan249">RectAttributes</tspan><tspan
   fill="#3955e7"
   font-weight="700"
   font-size="27px"
   x="-41.580002"
   y="224"
   id="tspan251">FontAttributes</tspan><tspan
   fill="#3955e7"
   font-weight="700"
   font-size="27px"
   x="-41.580002"
   y="256"
   id="tspan253">ShapeStyleAttributes</tspan><tspan
   fill="#d16919"
   font-size="27px"
   x="-89.580002"
   y="288"
   id="tspan255">CommentGroup</tspan></text>
    <rect
       x="27.500099"
       y="1267.5"
       width="205"
       height="98"
       stroke="#880bc8"
       stroke-width="3"
       stroke-linejoin="round"
       stroke-miterlimit="10"
       fill="#f2dbfd"
       id="rect259" />
    <text
       fill="#880bc8"
       font-family="Arial, Arial_MSFontService, sans-serif"
       font-weight="400"
       font-size="27px"
       transform="translate(70.2441,1326)"
       id="text261">StyleType</text>
    <path
       d="M 0,0 381.984,0.787402"
       stroke="#595959"
       stroke-width="3"
       stroke-linejoin="round"
       stroke-miterlimit="10"
       stroke-dasharray="12, 9"
       fill="none"
       fill-rule="evenodd"
       transform="matrix(1,0,0,-1,614.5,930.287)"
       id="path263" />
    <path
       d="M 0,0 58.9291,65.0709"
       stroke="#595959"
       stroke-width="3"
       stroke-linejoin="round"
       stroke-miterlimit="10"
       stroke-dasharray="12, 9"
       fill="none"
       fill-rule="evenodd"
       transform="matrix(-1,0,0,1,1242.43,864.5)"
       id="path265" />
    <path
       d="m 976.5,929.5 h 19.528"
       stroke="#595959"
       stroke-width="3"
       stroke-linejoin="round"
       stroke-miterlimit="10"
       stroke-dasharray="12, 9"
       fill="none"
       fill-rule="evenodd"
       id="path267" />
    <path
       d="M 1123.76,1136.33 1090.5,997.5"
       stroke="#595959"
       stroke-width="3"
       stroke-linejoin="round"
       stroke-miterlimit="10"
       stroke-dasharray="12, 9"
       fill="none"
       fill-rule="evenodd"
       id="path269" />
    <path
       d="M 1582.03,1136.33 1090.5,997.5"
       stroke="#595959"
       stroke-width="3"
       stroke-linejoin="round"
       stroke-miterlimit="10"
       stroke-dasharray="12, 9"
       fill="none"
       fill-rule="evenodd"
       id="path271" />
    <path
       d="m 445.5,893.167 c 0,-10.309 8.358,-18.667 18.667,-18.667 h 131.666 c 10.31,0 18.667,8.358 18.667,18.667 v 74.666 c 0,10.31 -8.357,18.667 -18.667,18.667 H 464.167 c -10.309,0 -18.667,-8.357 -18.667,-18.667 z"
       stroke="#000000"
       stroke-width="3"
       stroke-linejoin="round"
       stroke-miterlimit="10"
       fill="#f5f6f6"
       fill-rule="evenodd"
       id="path273" />
    <text
       font-family="Arial, Arial_MSFontService, sans-serif"
       font-weight="400"
       font-size="27px"
       transform="translate(504.864,908)"
       id="text279">Xref<tspan
   fill="#3955e7"
   font-size="27px"
   x="-45.080002"
   y="32"
   id="tspan275">identifier</tspan><tspan
   fill="#3955e7"
   font-size="27px"
   x="-45.080002"
   y="64"
   id="tspan277">dataSource</tspan></text>
    <rect
       x="27.500099"
       y="185.5"
       width="318"
       height="180"
       stroke="#3955e7"
       stroke-width="3"
       stroke-linejoin="round"
       stroke-miterlimit="10"
       fill="#edf0fd"
       id="rect281" />
    <text
       fill="#3955e7"
       font-family="Arial, Arial_MSFontService, sans-serif"
       font-weight="700"
       font-size="27px"
       transform="translate(93.9108,221)"
       id="text291">RectAttributes<tspan
   font-weight="400"
   font-size="27px"
   x="-57.333302"
   y="32"
   id="tspan283">centerX</tspan><tspan
   font-weight="400"
   font-size="27px"
   x="-57.333302"
   y="64"
   id="tspan285">centerY</tspan><tspan
   font-weight="400"
   font-size="27px"
   x="-57.333302"
   y="96"
   id="tspan287">width</tspan><tspan
   font-weight="400"
   font-size="27px"
   x="-57.333302"
   y="128"
   id="tspan289">height</tspan></text>
    <rect
       x="1242.5"
       y="604.5"
       width="278"
       height="521"
       stroke="#3955e7"
       stroke-width="3"
       stroke-linejoin="round"
       stroke-miterlimit="10"
       fill="#edf0fd"
       id="rect293" />
    <path
       d="m 1251.87,642.27 h 109.66 v 30 h -109.66 z"
       fill="#c8d0f8"
       fill-rule="evenodd"
       id="path295" />
    <path
       d="m 1251.87,674.27 h 80 v 30 h -80 z"
       fill="#c8d0f8"
       fill-rule="evenodd"
       id="path297" />
    <path
       d="m 1251.87,706.27 h 86 v 30 h -86 z"
       fill="#c8d0f8"
       fill-rule="evenodd"
       id="path299" />
    <path
       d="m 1251.87,738.27 h 83.16 v 30 h -83.16 z"
       fill="#c8d0f8"
       fill-rule="evenodd"
       id="path301" />
    <path
       d="m 1251.87,770.27 h 133.5 v 30 h -133.5 z"
       fill="#cccccc"
       fill-rule="evenodd"
       id="path303" />
    <path
       d="m 1251.87,802.27 h 91.83 v 30 h -91.83 z"
       fill="#cccccc"
       fill-rule="evenodd"
       id="path305" />
    <path
       d="m 1299.87,834.27 h 78.5 v 30 h -78.5 z"
       fill="#cccccc"
       fill-rule="evenodd"
       id="path307" />
    <path
       d="m 1347.87,898.27 h 118.5 v 30 h -118.5 z"
       fill="#c8d0f8"
       fill-rule="evenodd"
       id="path309" />
    <path
       d="m 1347.87,930.27 h 62.16 v 30 h -62.16 z"
       fill="#c8d0f8"
       fill-rule="evenodd"
       id="path311" />
    <path
       d="m 1347.87,962.27 h 48.83 v 30 h -48.83 z"
       fill="#d9d9d9"
       fill-rule="evenodd"
       id="path313" />
    <path
       d="m 1251.87,994.27 h 106.66 v 30 h -106.66 z"
       fill="#d9d9d9"
       fill-rule="evenodd"
       id="path315" />
    <text
       fill="#3955e7"
       font-family="Arial, Arial_MSFontService, sans-serif"
       font-weight="400"
       font-size="27px"
       transform="translate(1251.87,634)"
       id="text347">title<tspan
   font-style="italic"
   font-size="27px"
   x="0"
   y="32"
   id="tspan317">organism</tspan><tspan
   font-style="italic"
   font-size="27px"
   x="0"
   y="64"
   id="tspan319">source</tspan><tspan
   font-style="italic"
   font-size="27px"
   x="0"
   y="96"
   id="tspan321">version</tspan><tspan
   font-style="italic"
   font-size="27px"
   x="0"
   y="128"
   id="tspan323">license</tspan><tspan
   fill="#000000"
   font-style="italic"
   font-size="27px"
   x="0"
   y="160"
   id="tspan325">Description</tspan><tspan
   fill="#000000"
   font-style="italic"
   font-size="27px"
   x="0"
   y="192"
   id="tspan327">Authors</tspan><tspan
   fill="#000000"
   font-style="italic"
   font-size="27px"
   x="48"
   y="224"
   id="tspan329">Author</tspan><tspan
   font-size="27px"
   x="96"
   y="256"
   id="tspan331">name</tspan><tspan
   font-style="italic"
   font-size="27px"
   x="96"
   y="288"
   id="tspan333">username</tspan><tspan
   font-style="italic"
   font-size="27px"
   x="96"
   y="320"
   id="tspan335">order</tspan><tspan
   fill="#000000"
   font-style="italic"
   font-size="27px"
   x="96"
   y="352"
   id="tspan337">Xref</tspan><tspan
   fill="#000000"
   font-style="italic"
   font-size="27px"
   x="0"
   y="384"
   id="tspan339">Graphics</tspan><tspan
   font-size="27px"
   x="48"
   y="416"
   id="tspan341">boardWidth</tspan><tspan
   font-size="27px"
   x="48"
   y="448"
   id="tspan343">boardHeight</tspan><tspan
   font-size="27px"
   x="48"
   y="480"
   id="tspan345">backgroundColor</tspan></text>
    <rect
       x="27.500099"
       y="732.5"
       width="318"
       height="267"
       stroke="#3955e7"
       stroke-width="3"
       stroke-linejoin="round"
       stroke-miterlimit="10"
       fill="#edf0fd"
       id="rect349" />
    <path
       d="m 36.5774,931.685 h 81.3336 v 30 H 36.5774 Z"
       fill="#cfe2f3"
       fill-rule="evenodd"
       id="path351" />
    <path
       d="m 36.5774,963.685 h 88.8336 v 30 H 36.5774 Z"
       fill="#cfe2f3"
       fill-rule="evenodd"
       id="path353" />
    <text
       fill="#3955e7"
       font-family="Arial, Arial_MSFontService, sans-serif"
       font-weight="700"
       font-size="27px"
       transform="translate(50.9108,764)"
       id="text369">ShapeStyleAttributes<tspan
   font-weight="400"
   font-size="27px"
   x="-14.3333"
   y="32"
   id="tspan355">borderColor</tspan><tspan
   font-weight="400"
   font-size="27px"
   x="-14.3333"
   y="64"
   id="tspan357">borderStyle</tspan><tspan
   font-weight="400"
   font-size="27px"
   x="-14.3333"
   y="96"
   id="tspan359">borderWidth</tspan><tspan
   font-weight="400"
   font-size="27px"
   x="-14.3333"
   y="128"
   id="tspan361">fillColor</tspan><tspan
   font-weight="400"
   font-size="27px"
   x="-14.3333"
   y="160"
   id="tspan363">shapeType</tspan><tspan
   font-style="italic"
   font-weight="400"
   font-size="27px"
   x="-14.3333"
   y="192"
   id="tspan365">zOrder</tspan><tspan
   font-style="italic"
   font-weight="400"
   font-size="27px"
   x="-14.3333"
   y="224"
   id="tspan367">rotation</tspan></text>
    <rect
       x="25.500099"
       y="1023.5"
       width="321"
       height="217"
       stroke="#3955e7"
       stroke-width="3"
       stroke-linejoin="round"
       stroke-miterlimit="10"
       fill="#edf0fd"
       id="rect371" />
    <path
       d="m 34.7192,1197.56 h 81.3328 v 30 H 34.7192 Z"
       fill="#cfe2f3"
       fill-rule="evenodd"
       id="path373" />
    <text
       fill="#3955e7"
       font-family="Arial, Arial_MSFontService, sans-serif"
       font-weight="700"
       font-size="27px"
       transform="translate(63.5525,1062)"
       id="text385">LineStyleAttributes<tspan
   font-weight="400"
   font-size="27px"
   x="-28.8333"
   y="32"
   id="tspan375">lineColor</tspan><tspan
   font-weight="400"
   font-size="27px"
   x="-28.8333"
   y="64"
   id="tspan377">lineStyle</tspan><tspan
   font-weight="400"
   font-size="27px"
   x="-28.8333"
   y="96"
   id="tspan379">lineWidth</tspan><tspan
   font-weight="400"
   font-size="27px"
   x="-28.8333"
   y="128"
   id="tspan381">connectorType</tspan><tspan
   font-style="italic"
   font-weight="400"
   font-size="27px"
   x="-28.8333"
   y="160"
   id="tspan383">zOrder</tspan></text>
    <path
       d="m 443.5,1139.83 c 0,-39.94 32.385,-72.33 72.335,-72.33 h 289.33 c 39.95,0 72.335,32.39 72.335,72.33 v 320.34 c 0,39.94 -32.385,72.33 -72.335,72.33 h -289.33 c -39.95,0 -72.335,-32.39 -72.335,-72.33 z"
       stroke="#000000"
       stroke-width="3"
       stroke-linejoin="round"
       stroke-miterlimit="10"
       fill="#f5f6f6"
       fill-rule="evenodd"
       id="path387" />
    <path
       d="m 522.177,1205.59 h 108.166 v 30 H 522.177 Z"
       fill="#c8d0f8"
       fill-rule="evenodd"
       id="path389" />
    <path
       d="m 522.177,1269.59 h 109.666 v 30 H 522.177 Z"
       fill="#c8d0f8"
       fill-rule="evenodd"
       id="path391" />
    <path
       d="m 522.177,1301.59 h 48.833 v 30 h -48.833 z"
       fill="#d9d9d9"
       fill-rule="evenodd"
       id="path393" />
    <text
       font-family="Arial, Arial_MSFontService, sans-serif"
       font-weight="400"
       font-size="27px"
       transform="translate(616.256,1134)"
       id="text417">Groups<tspan
   font-size="27px"
   x="-142.08"
   y="32"
   id="tspan395">Group</tspan><tspan
   fill="#3955e7"
   font-size="27px"
   x="-94.080002"
   y="64"
   id="tspan397">elementId</tspan><tspan
   fill="#3955e7"
   font-style="italic"
   font-size="27px"
   x="-94.080002"
   y="96"
   id="tspan399">textLabel</tspan><tspan
   fill="#3955e7"
   font-size="27px"
   x="-94.080002"
   y="128"
   id="tspan401">type</tspan><tspan
   fill="#3955e7"
   font-style="italic"
   font-size="27px"
   x="-94.080002"
   y="160"
   id="tspan403">groupRef</tspan><tspan
   font-style="italic"
   font-size="27px"
   x="-94.080002"
   y="192"
   id="tspan405">Xref</tspan><tspan
   font-size="27px"
   x="-94.080002"
   y="224"
   id="tspan407">Graphics</tspan><tspan
   fill="#3955e7"
   font-weight="700"
   font-size="27px"
   x="-46.080002"
   y="256"
   id="tspan409">RectAttributes</tspan><tspan
   fill="#3955e7"
   font-weight="700"
   font-size="27px"
   x="-46.080002"
   y="288"
   id="tspan411">FontAttributes</tspan><tspan
   fill="#3955e7"
   font-weight="700"
   font-size="27px"
   x="-46.080002"
   y="320"
   id="tspan413">ShapeStyleAttributes</tspan><tspan
   fill="#d16919"
   font-size="27px"
   x="-94.080002"
   y="352"
   id="tspan415">CommentGroup</tspan></text>
    <path
       d="m 442.5,467.667 c 0,-15.004 12.163,-27.167 27.167,-27.167 h 223.666 c 15.004,0 27.167,12.163 27.167,27.167 v 108.666 c 0,15.004 -12.163,27.167 -27.167,27.167 H 469.667 c -15.004,0 -27.167,-12.163 -27.167,-27.167 z"
       stroke="#000000"
       stroke-width="3"
       stroke-linejoin="round"
       stroke-miterlimit="10"
       fill="#f5f6f6"
       fill-rule="evenodd"
       id="path419" />
    <text
       font-family="Arial, Arial_MSFontService, sans-serif"
       font-weight="400"
       font-size="27px"
       transform="translate(529.287,483)"
       id="text429">Citations<tspan
   font-size="27px"
   x="-69.413399"
   y="32"
   id="tspan421">Citation</tspan><tspan
   fill="#3955e7"
   font-size="27px"
   x="-21.413401"
   y="64"
   id="tspan423">elementId</tspan><tspan
   font-size="27px"
   x="-21.413401"
   y="96"
   id="tspan425">Xref</tspan><tspan
   font-style="italic"
   font-size="27px"
   x="34.7533"
   y="96"
   id="tspan427">(and/or)</tspan>Url</text>
    <path
       d="m 720.5,521.5 369.54,340.346"
       stroke="#595959"
       stroke-width="3"
       stroke-linejoin="round"
       stroke-miterlimit="10"
       stroke-dasharray="12, 9"
       fill="none"
       fill-rule="evenodd"
       id="path431" />
    <path
       d="m 2041.5,664.667 c 0,-17.213 13.95,-31.167 31.17,-31.167 h 124.66 c 17.22,0 31.17,13.954 31.17,31.167 v 205.666 c 0,17.213 -13.95,31.167 -31.17,31.167 h -124.66 c -17.22,0 -31.17,-13.954 -31.17,-31.167 z"
       stroke="#000000"
       stroke-width="3"
       stroke-linejoin="round"
       stroke-miterlimit="10"
       fill="#f5f6f6"
       fill-rule="evenodd"
       id="path433" />
    <path
       d="m 2059.44,801.235 h 136.34 v 30 h -136.34 z"
       fill="#c8d0f8"
       fill-rule="evenodd"
       id="path435" />
    <path
       d="m 2059.44,833.235 h 47.5 v 30 h -47.5 z"
       fill="#c8d0f8"
       fill-rule="evenodd"
       id="path437" />
    <path
       d="m 2059.44,865.235 h 47.5 v 30 h -47.5 z"
       fill="#c8d0f8"
       fill-rule="evenodd"
       id="path439" />
    <text
       font-family="Arial, Arial_MSFontService, sans-serif"
       font-weight="400"
       font-size="27px"
       transform="translate(2103.94,665)"
       id="text455">Point<tspan
   fill="#3955e7"
   font-size="27px"
   x="-44.5"
   y="32"
   id="tspan441">elementId</tspan><tspan
   fill="#3955e7"
   font-size="27px"
   x="-44.5"
   y="64"
   id="tspan443">arrowHead</tspan><tspan
   fill="#3955e7"
   font-size="27px"
   x="-44.5"
   y="96"
   id="tspan445">x</tspan><tspan
   fill="#3955e7"
   font-size="27px"
   x="-44.5"
   y="128"
   id="tspan447">y</tspan><tspan
   fill="#3955e7"
   font-style="italic"
   font-size="27px"
   x="-44.5"
   y="160"
   id="tspan449">elementRef</tspan><tspan
   fill="#3955e7"
   font-style="italic"
   font-size="27px"
   x="-44.5"
   y="192"
   id="tspan451">relX</tspan><tspan
   fill="#3955e7"
   font-style="italic"
   font-size="27px"
   x="-44.5"
   y="224"
   id="tspan453">relY</tspan></text>
    <path
       d="m 2041.5,945.667 c 0,-13.899 11.27,-25.167 25.17,-25.167 h 136.66 c 13.9,0 25.17,11.268 25.17,25.167 v 100.663 c 0,13.9 -11.27,25.17 -25.17,25.17 h -136.66 c -13.9,0 -25.17,-11.27 -25.17,-25.17 z"
       stroke="#000000"
       stroke-width="3"
       stroke-linejoin="round"
       stroke-miterlimit="10"
       fill="#f5f6f6"
       fill-rule="evenodd"
       id="path457" />
    <text
       font-family="Arial, Arial_MSFontService, sans-serif"
       font-weight="400"
       font-size="27px"
       transform="translate(2092.08,958)"
       id="text465">Anchor<tspan
   fill="#3955e7"
   font-size="27px"
   x="-34.4133"
   y="32"
   id="tspan459">elementId</tspan><tspan
   fill="#3955e7"
   font-size="27px"
   x="-34.4133"
   y="64"
   id="tspan461">position</tspan><tspan
   fill="#3955e7"
   font-size="27px"
   x="-34.4133"
   y="96"
   id="tspan463">shapeType</tspan></text>
    <path
       d="m 442.5,226.334 c 0,-21.447 17.387,-38.834 38.834,-38.834 h 200.332 c 21.448,0 38.834,17.387 38.834,38.834 v 155.332 c 0,21.447 -17.386,38.834 -38.834,38.834 H 481.334 c -21.447,0 -38.834,-17.387 -38.834,-38.834 z"
       stroke="#000000"
       stroke-width="3"
       stroke-linejoin="round"
       stroke-miterlimit="10"
       fill="#f5f6f6"
       fill-rule="evenodd"
       id="path467" />
    <path
       d="m 511.315,353.068 h 48.833 v 30 h -48.833 z"
       fill="#d9d9d9"
       fill-rule="evenodd"
       id="path469" />
    <path
       d="m 511.315,385.068 h 34.166 v 30 h -34.166 z"
       fill="#d9d9d9"
       fill-rule="evenodd"
       id="path471" />
    <text
       font-family="Arial, Arial_MSFontService, sans-serif"
       font-weight="400"
       font-size="27px"
       transform="translate(510.728,217)"
       id="text485">Annotations<tspan
   font-size="27px"
   x="-47.4133"
   y="32"
   id="tspan473">Annotation</tspan><tspan
   fill="#3955e7"
   font-size="27px"
   x="0.58666998"
   y="64"
   id="tspan475">elementId</tspan><tspan
   fill="#3955e7"
   font-size="27px"
   x="0.58666998"
   y="96"
   id="tspan477">value</tspan><tspan
   fill="#3955e7"
   font-size="27px"
   x="0.58666998"
   y="128"
   id="tspan479">type</tspan><tspan
   font-style="italic"
   font-size="27px"
   x="0.58666998"
   y="160"
   id="tspan481">Xref</tspan><tspan
   font-style="italic"
   font-size="27px"
   x="0.58666998"
   y="192"
   id="tspan483">Url</tspan></text>
    <path
       d="m 720.5,303.5 369.54,558.709"
       stroke="#595959"
       stroke-width="3"
       stroke-linejoin="round"
       stroke-miterlimit="10"
       stroke-dasharray="12, 9"
       fill="none"
       fill-rule="evenodd"
       id="path487" />
    <path
       d="m 442.5,673.667 c 0,-18.87 15.297,-34.167 34.167,-34.167 h 209.666 c 18.87,0 34.167,15.297 34.167,34.167 v 136.666 c 0,18.87 -15.297,34.167 -34.167,34.167 H 476.667 c -18.87,0 -34.167,-15.297 -34.167,-34.167 z"
       stroke="#000000"
       stroke-width="3"
       stroke-linejoin="round"
       stroke-miterlimit="10"
       fill="#f5f6f6"
       fill-rule="evenodd"
       id="path489" />
    <path
       d="m 509.985,743.415 h 63.833 v 30 h -63.833 z"
       fill="#c8d0f8"
       fill-rule="evenodd"
       id="path491" />
    <path
       d="m 509.985,807.415 h 34.166 v 30 h -34.166 z"
       fill="#d9d9d9"
       fill-rule="evenodd"
       id="path493" />
    <text
       font-family="Arial, Arial_MSFontService, sans-serif"
       font-weight="400"
       font-size="27px"
       transform="translate(519.565,671)"
       id="text505">Evidences<tspan
   font-size="27px"
   x="-57.580002"
   y="32"
   id="tspan495">Evidence</tspan><tspan
   fill="#3955e7"
   font-size="27px"
   x="-9.58002"
   y="64"
   id="tspan497">elementId</tspan><tspan
   fill="#3955e7"
   font-style="italic"
   font-size="27px"
   x="-9.58002"
   y="96"
   id="tspan499">value</tspan><tspan
   font-size="27px"
   x="-9.58002"
   y="128"
   id="tspan501">Xref</tspan><tspan
   font-style="italic"
   font-size="27px"
   x="-9.58002"
   y="160"
   id="tspan503">Url</tspan></text>
    <rect
       x="870.5"
       y="189.5"
       width="243"
       height="503"
       stroke="#ff8120"
       stroke-width="3"
       stroke-linejoin="round"
       stroke-miterlimit="10"
       fill="#ffe0c8"
       id="rect507" />
    <path
       d="m 927.78,456.698 h 132 v 30 h -132 z"
       fill="#d9d9d9"
       fill-rule="evenodd"
       id="path509" />
    <path
       d="m 927.78,488.698 h 151.33 v 30 H 927.78 Z"
       fill="#d9d9d9"
       fill-rule="evenodd"
       id="path511" />
    <path
       d="m 927.78,584.698 h 169 v 30 h -169 z"
       fill="#d9d9d9"
       fill-rule="evenodd"
       id="path513" />
    <text
       fill="#d16919"
       font-family="Arial, Arial_MSFontService, sans-serif"
       font-weight="400"
       font-size="27px"
       transform="translate(896.78,225)"
       id="text543">CommentGroup<tspan
   fill="#000000"
   font-size="27px"
   x="-17"
   y="32"
   id="tspan515">Comment</tspan><tspan
   fill="#3955e7"
   font-size="27px"
   x="31"
   y="64"
   id="tspan517">source</tspan><tspan
   fill="#000000"
   font-size="27px"
   x="-17"
   y="96"
   id="tspan519">Property</tspan><tspan
   fill="#3955e7"
   font-size="27px"
   x="31"
   y="128"
   id="tspan521">key</tspan><tspan
   fill="#3955e7"
   font-size="27px"
   x="31"
   y="160"
   id="tspan523">value</tspan><tspan
   fill="#434343"
   font-size="27px"
   x="-17"
   y="192"
   id="tspan525">AnnotationRef</tspan><tspan
   fill="#3955e7"
   font-size="27px"
   x="31"
   y="224"
   id="tspan527">elementRef</tspan><tspan
   fill="#000000"
   font-style="italic"
   font-size="27px"
   x="31"
   y="256"
   id="tspan529">CitationRef</tspan><tspan
   fill="#000000"
   font-style="italic"
   font-size="27px"
   x="31"
   y="288"
   id="tspan531">EvidenceRef</tspan><tspan
   fill="#000000"
   font-size="27px"
   x="-17"
   y="320"
   id="tspan533">CitationRef</tspan><tspan
   fill="#3955e7"
   font-size="27px"
   x="27"
   y="352"
   id="tspan535">elementRef</tspan><tspan
   fill="#000000"
   font-style="italic"
   font-size="27px"
   x="31"
   y="384"
   id="tspan537">AnnotationRef</tspan><tspan
   fill="#000000"
   font-size="27px"
   x="-17"
   y="416"
   id="tspan539">EvidenceRef</tspan><tspan
   fill="#3955e7"
   font-size="27px"
   x="31"
   y="448"
   id="tspan541">elementRef</tspan></text>
    <path
       d="M 0,0 68.126,0.314961"
       stroke="#595959"
       stroke-width="3"
       stroke-linejoin="round"
       stroke-miterlimit="10"
       stroke-dasharray="12, 9"
       fill="none"
       fill-rule="evenodd"
       transform="matrix(-1,0,0,1,1740.63,348.5)"
       id="path545" />
    <path
       d="M 0,0 52.7559,72.6929"
       stroke="#595959"
       stroke-width="3"
       stroke-linejoin="round"
       stroke-miterlimit="10"
       stroke-dasharray="12, 9"
       fill="none"
       fill-rule="evenodd"
       transform="matrix(-1,0,0,1,2041.26,767.5)"
       id="path547" />
    <path
       d="M 2041.26,996.406 1988.5,840.5"
       stroke="#595959"
       stroke-width="3"
       stroke-linejoin="round"
       stroke-miterlimit="10"
       stroke-dasharray="12, 9"
       fill="none"
       fill-rule="evenodd"
       id="path549" />
    <path
       d="M 0,0 107.874,111.811"
       stroke="#595959"
       stroke-width="3"
       stroke-linejoin="round"
       stroke-miterlimit="10"
       stroke-dasharray="12, 9"
       fill="none"
       fill-rule="evenodd"
       transform="matrix(1,0,0,-1,2027.5,1183.31)"
       id="path551" />
    <path
       d="m 414,438 c 0,-19.33 15.67,-35 35,-35 19.33,0 35,15.67 35,35 0,19.33 -15.67,35 -35,35 -19.33,0 -35,-15.67 -35,-35 z"
       stroke="#00cc9e"
       stroke-width="8"
       stroke-linejoin="round"
       stroke-miterlimit="10"
       fill="#d5fff6"
       fill-rule="evenodd"
       id="path553" />
    <text
       fill="#00cc9e"
       font-family="Arial, Arial_MSFontService, sans-serif"
       font-weight="700"
       font-size="53px"
       transform="translate(433.776,458)"
       id="text555">1</text>
    <path
       d="m 406,1010 c 0,-19.33 15.67,-35 35,-35 19.33,0 35,15.67 35,35 0,19.33 -15.67,35 -35,35 -19.33,0 -35,-15.67 -35,-35 z"
       stroke="#00cc9e"
       stroke-width="8"
       stroke-linejoin="round"
       stroke-miterlimit="10"
       fill="#d5fff6"
       fill-rule="evenodd"
       id="path557" />
    <text
       fill="#00cc9e"
       font-family="Arial, Arial_MSFontService, sans-serif"
       font-weight="700"
       font-size="53px"
       transform="translate(426.013,1030)"
       id="text559">7</text>
    <path
       d="m 2202,728 c 0,-19.33 15.67,-35 35,-35 19.33,0 35,15.67 35,35 0,19.33 -15.67,35 -35,35 -19.33,0 -35,-15.67 -35,-35 z"
       stroke="#00cc9e"
       stroke-width="8"
       stroke-linejoin="round"
       stroke-miterlimit="10"
       fill="#d5fff6"
       fill-rule="evenodd"
       id="path561" />
    <text
       fill="#00cc9e"
       font-family="Arial, Arial_MSFontService, sans-serif"
       font-weight="700"
       font-size="53px"
       transform="translate(2222.42,748)"
       id="text563">3</text>
    <path
       d="m 1480,237 c 0,-19.33 15.67,-35 35,-35 19.33,0 35,15.67 35,35 0,19.33 -15.67,35 -35,35 -19.33,0 -35,-15.67 -35,-35 z"
       stroke="#00cc9e"
       stroke-width="8"
       stroke-linejoin="round"
       stroke-miterlimit="10"
       fill="#d5fff6"
       fill-rule="evenodd"
       id="path565" />
    <text
       fill="#00cc9e"
       font-family="Arial, Arial_MSFontService, sans-serif"
       font-weight="700"
       font-size="53px"
       transform="translate(1500.51,257)"
       id="text567">4</text>
    <path
       d="m 2228,94 c 0,-19.33 15.67,-35 35,-35 19.33,0 35,15.67 35,35 0,19.33 -15.67,35 -35,35 -19.33,0 -35,-15.67 -35,-35 z"
       stroke="#00cc9e"
       stroke-width="8"
       stroke-linejoin="round"
       stroke-miterlimit="10"
       fill="#d5fff6"
       fill-rule="evenodd"
       id="path569" />
    <text
       fill="#00cc9e"
       font-family="Arial, Arial_MSFontService, sans-serif"
       font-weight="700"
       font-size="53px"
       transform="translate(2248.24,114)"
       id="text571">0</text>
    <path
       d="m 1422,804 c 0,-19.33 15.67,-35 35,-35 19.33,0 35,15.67 35,35 0,19.33 -15.67,35 -35,35 -19.33,0 -35,-15.67 -35,-35 z"
       stroke="#00cc9e"
       stroke-width="8"
       stroke-linejoin="round"
       stroke-miterlimit="10"
       fill="#d5fff6"
       fill-rule="evenodd"
       id="path573" />
    <text
       fill="#00cc9e"
       font-family="Arial, Arial_MSFontService, sans-serif"
       font-weight="700"
       font-size="53px"
       transform="translate(1442.31,824)"
       id="text575">6</text>
    <path
       d="m 414,644.5 c 0,-19.606 15.67,-35.5 35,-35.5 19.33,0 35,15.894 35,35.5 0,19.606 -15.67,35.5 -35,35.5 -19.33,0 -35,-15.894 -35,-35.5 z"
       stroke="#00cc9e"
       stroke-width="8"
       stroke-linejoin="round"
       stroke-miterlimit="10"
       fill="#d5fff6"
       fill-rule="evenodd"
       id="path577" />
    <text
       fill="#00cc9e"
       font-family="Arial, Arial_MSFontService, sans-serif"
       font-weight="700"
       font-size="53px"
       transform="translate(434.013,664)"
       id="text579">2</text>
    <path
       d="m 421,1376 c 0,-19.33 15.67,-35 35,-35 19.33,0 35,15.67 35,35 0,19.33 -15.67,35 -35,35 -19.33,0 -35,-15.67 -35,-35 z"
       stroke="#00cc9e"
       stroke-width="8"
       stroke-linejoin="round"
       stroke-miterlimit="10"
       fill="#d5fff6"
       fill-rule="evenodd"
       id="path581" />
    <text
       fill="#00cc9e"
       font-family="Arial, Arial_MSFontService, sans-serif"
       font-weight="700"
       font-size="53px"
       transform="translate(441.441,1396)"
       id="text583">8</text>
    <path
       d="m 1714,348 c 0,-19.33 15.67,-35 35,-35 19.33,0 35,15.67 35,35 0,19.33 -15.67,35 -35,35 -19.33,0 -35,-15.67 -35,-35 z"
       stroke="#00cc9e"
       stroke-width="8"
       stroke-linejoin="round"
       stroke-miterlimit="10"
       fill="#d5fff6"
       fill-rule="evenodd"
       id="path585" />
    <text
       fill="#00cc9e"
       font-family="Arial, Arial_MSFontService, sans-serif"
       font-weight="700"
       font-size="53px"
       transform="translate(1734.27,368)"
       id="text587">5</text>
    <path
       d="m 725.5,893.167 c 0,-10.309 8.358,-18.667 18.667,-18.667 h 131.666 c 10.31,0 18.667,8.358 18.667,18.667 v 74.666 c 0,10.31 -8.357,18.667 -18.667,18.667 H 744.167 c -10.309,0 -18.667,-8.357 -18.667,-18.667 z"
       stroke="#000000"
       stroke-width="3"
       stroke-linejoin="round"
       stroke-miterlimit="10"
       fill="#f5f6f6"
       fill-rule="evenodd"
       id="path589" />
    <text
       font-family="Arial, Arial_MSFontService, sans-serif"
       font-weight="400"
       font-size="27px"
       transform="translate(792.478,908)"
       id="text593">Url<tspan
   fill="#3955e7"
   font-size="27px"
   x="-52.5"
   y="32"
   id="tspan591">link</tspan></text>
  </g>
</svg>
